<svg version="1.1" xmlns="http://www.w3.org/2000/svg" xmlns:xlink="http://www.w3.org/1999/xlink" viewBox="290 83 252 190">
  <path fill="#142E4B" d="M452.500031,83.136314 C411.501282,83.127960 370.502441,83.067986 329.503815,83.132629 C308.430786,83.165863 290.550232,99.648727 290.368835,119.990257 C290.027100,158.319305 290.039948,196.655182 290.340271,234.984802 C290.497498,255.047470 308.127991,272.061035 328.164398,272.094086 C386.829071,272.190826 445.494049,272.205292 504.158783,272.138062 C524.335754,272.114960 541.834473,254.643173 541.901062,234.432404 C542.024536,196.933838 542.027954,159.434326 541.908325,121.935745 C541.839966,100.509293 523.991943,83.077637 502.498505,83.088943 C486.165680,83.097542 469.832886,83.120895 452.500031,83.136314 M374.409302,159.890762 C374.323303,162.580917 374.237335,165.271088 373.572906,168.575134 C373.430267,181.175385 373.274475,193.775528 373.188995,206.376175 C373.185272,206.928955 373.824890,207.486115 374.442657,208.907074 C374.350250,211.925308 374.257874,214.943527 373.675629,218.360519 C373.830475,219.250275 373.985352,220.140045 374.437561,221.826813 C374.446686,222.491119 374.464478,223.155426 374.463623,223.819717 C374.452759,232.030991 377.296356,233.729187 384.629395,229.831100 C389.030212,227.491730 393.388397,225.072159 397.767181,222.691345 C421.123047,209.992508 444.488495,197.311295 467.828094,184.582642 C472.713867,181.918091 472.993530,177.667633 468.433289,175.040527 C440.210175,158.781616 411.946777,142.592712 383.721375,126.337723 C380.159058,124.286194 377.143341,124.220749 374.292358,128.115295 C374.182739,128.216034 373.965851,128.384796 373.979980,128.407074 C374.132629,128.647873 374.321655,128.865616 374.634918,129.728455 C374.497040,130.130493 374.359192,130.532547 373.615387,131.534470 C373.408630,138.314026 373.086456,145.093079 373.057404,151.873398 C373.047180,154.257751 373.755402,156.645203 374.409302,159.890762z"/>
</svg>